<mxfile host="app.diagrams.net" modified="2023-08-24T20:28:53.382Z" agent="Mozilla/5.0 (Windows NT 10.0; Win64; x64) AppleWebKit/537.36 (KHTML, like Gecko) Chrome/116.0.0.0 Safari/537.36 Edg/116.0.1938.54" etag="PTs7AARnynNS_6IyLIzF" version="21.6.9" type="device">
  <diagram name="Página-1" id="9iiaz7-xdx4cBSqnnxTc">
    <mxGraphModel dx="1687" dy="936" grid="1" gridSize="10" guides="1" tooltips="1" connect="1" arrows="1" fold="1" page="1" pageScale="1" pageWidth="1169" pageHeight="827" math="0" shadow="0">
      <root>
        <mxCell id="0" />
        <mxCell id="1" parent="0" />
        <mxCell id="7g--utZz4-_J3ylmZAS1-159" value="&lt;font style=&quot;font-size: 20px;&quot;&gt;TABELA:&amp;nbsp; FUNCIONARIOS&lt;/font&gt;" style="text;html=1;strokeColor=none;fillColor=none;align=center;verticalAlign=middle;whiteSpace=wrap;rounded=0;fontSize=20;" vertex="1" parent="1">
          <mxGeometry x="130" y="120" width="290" height="50" as="geometry" />
        </mxCell>
        <mxCell id="7g--utZz4-_J3ylmZAS1-164" value="" style="group" vertex="1" connectable="0" parent="1">
          <mxGeometry x="640" y="170" width="460" height="450" as="geometry" />
        </mxCell>
        <mxCell id="7g--utZz4-_J3ylmZAS1-157" value="DICIONÁRIO DE DADOS" style="text;html=1;strokeColor=none;fillColor=none;align=center;verticalAlign=middle;whiteSpace=wrap;rounded=0;fontSize=27;swimlaneLine=1;movable=1;resizable=1;rotatable=1;deletable=1;editable=1;locked=0;connectable=1;" vertex="1" parent="7g--utZz4-_J3ylmZAS1-164">
          <mxGeometry width="459.9999999999999" height="71.05263157894737" as="geometry" />
        </mxCell>
        <mxCell id="7g--utZz4-_J3ylmZAS1-161" value="" style="group;swimlaneLine=1;movable=1;resizable=1;rotatable=1;deletable=1;editable=1;locked=0;connectable=1;" vertex="1" connectable="0" parent="7g--utZz4-_J3ylmZAS1-164">
          <mxGeometry y="71.05263157894737" width="459.9999999999999" height="378.94736842105266" as="geometry" />
        </mxCell>
        <mxCell id="7g--utZz4-_J3ylmZAS1-126" value="" style="shape=table;startSize=0;container=1;collapsible=0;childLayout=tableLayout;fontSize=10;movable=1;resizable=1;rotatable=1;deletable=1;editable=1;locked=0;connectable=1;swimlaneLine=1;" vertex="1" parent="7g--utZz4-_J3ylmZAS1-161">
          <mxGeometry width="459.9999999999999" height="181.23569794050348" as="geometry" />
        </mxCell>
        <mxCell id="7g--utZz4-_J3ylmZAS1-127" value="" style="shape=tableRow;horizontal=0;startSize=0;swimlaneHead=0;swimlaneBody=0;strokeColor=inherit;top=0;left=0;bottom=0;right=0;collapsible=0;dropTarget=0;fillColor=none;points=[[0,0.5],[1,0.5]];portConstraint=eastwest;fontSize=16;movable=1;resizable=1;rotatable=1;deletable=1;editable=1;locked=0;connectable=1;swimlaneLine=1;" vertex="1" parent="7g--utZz4-_J3ylmZAS1-126">
          <mxGeometry width="459.9999999999999" height="64" as="geometry" />
        </mxCell>
        <mxCell id="7g--utZz4-_J3ylmZAS1-128" value="&lt;div style=&quot;&quot;&gt;&lt;span style=&quot;background-color: initial;&quot;&gt;&lt;font style=&quot;font-size: 15px;&quot;&gt;COLUNA&lt;/font&gt;&lt;/span&gt;&lt;/div&gt;" style="shape=partialRectangle;html=1;whiteSpace=wrap;connectable=1;strokeColor=inherit;overflow=hidden;fillColor=none;top=0;left=0;bottom=0;right=0;pointerEvents=1;fontSize=16;movable=1;resizable=1;rotatable=1;deletable=1;editable=1;locked=0;align=center;swimlaneLine=1;" vertex="1" parent="7g--utZz4-_J3ylmZAS1-127">
          <mxGeometry width="153" height="64" as="geometry">
            <mxRectangle width="153" height="64" as="alternateBounds" />
          </mxGeometry>
        </mxCell>
        <mxCell id="7g--utZz4-_J3ylmZAS1-129" value="&lt;font style=&quot;font-size: 15px;&quot;&gt;TIPO&lt;/font&gt;" style="shape=partialRectangle;html=1;whiteSpace=wrap;connectable=1;strokeColor=inherit;overflow=hidden;fillColor=none;top=0;left=0;bottom=0;right=0;pointerEvents=1;fontSize=16;movable=1;resizable=1;rotatable=1;deletable=1;editable=1;locked=0;swimlaneLine=1;" vertex="1" parent="7g--utZz4-_J3ylmZAS1-127">
          <mxGeometry x="153" width="154" height="64" as="geometry">
            <mxRectangle width="154" height="64" as="alternateBounds" />
          </mxGeometry>
        </mxCell>
        <mxCell id="7g--utZz4-_J3ylmZAS1-130" value="&lt;font style=&quot;font-size: 15px;&quot;&gt;DESC&lt;/font&gt;" style="shape=partialRectangle;html=1;whiteSpace=wrap;connectable=1;strokeColor=inherit;overflow=hidden;fillColor=none;top=0;left=0;bottom=0;right=0;pointerEvents=1;fontSize=16;movable=1;resizable=1;rotatable=1;deletable=1;editable=1;locked=0;swimlaneLine=1;" vertex="1" parent="7g--utZz4-_J3ylmZAS1-127">
          <mxGeometry x="307" width="153" height="64" as="geometry">
            <mxRectangle width="153" height="64" as="alternateBounds" />
          </mxGeometry>
        </mxCell>
        <mxCell id="7g--utZz4-_J3ylmZAS1-131" value="" style="shape=tableRow;horizontal=0;startSize=0;swimlaneHead=0;swimlaneBody=0;strokeColor=inherit;top=0;left=0;bottom=0;right=0;collapsible=0;dropTarget=0;fillColor=none;points=[[0,0.5],[1,0.5]];portConstraint=eastwest;fontSize=16;movable=1;resizable=1;rotatable=1;deletable=1;editable=1;locked=0;connectable=1;swimlaneLine=1;" vertex="1" parent="7g--utZz4-_J3ylmZAS1-126">
          <mxGeometry y="64" width="459.9999999999999" height="54" as="geometry" />
        </mxCell>
        <mxCell id="7g--utZz4-_J3ylmZAS1-132" value="&lt;font style=&quot;font-size: 15px;&quot;&gt;cpf&lt;/font&gt;" style="shape=partialRectangle;html=1;whiteSpace=wrap;connectable=1;strokeColor=inherit;overflow=hidden;fillColor=none;top=0;left=0;bottom=0;right=0;pointerEvents=1;fontSize=16;movable=1;resizable=1;rotatable=1;deletable=1;editable=1;locked=0;swimlaneLine=1;" vertex="1" parent="7g--utZz4-_J3ylmZAS1-131">
          <mxGeometry width="153" height="54" as="geometry">
            <mxRectangle width="153" height="54" as="alternateBounds" />
          </mxGeometry>
        </mxCell>
        <mxCell id="7g--utZz4-_J3ylmZAS1-133" value="&lt;div style=&quot;&quot;&gt;&lt;span style=&quot;background-color: initial;&quot;&gt;&lt;font style=&quot;font-size: 15px;&quot;&gt;INT&lt;/font&gt;&lt;/span&gt;&lt;/div&gt;" style="shape=partialRectangle;html=1;whiteSpace=wrap;connectable=1;strokeColor=inherit;overflow=hidden;fillColor=none;top=0;left=0;bottom=0;right=0;pointerEvents=1;fontSize=16;align=center;movable=1;resizable=1;rotatable=1;deletable=1;editable=1;locked=0;swimlaneLine=1;" vertex="1" parent="7g--utZz4-_J3ylmZAS1-131">
          <mxGeometry x="153" width="154" height="54" as="geometry">
            <mxRectangle width="154" height="54" as="alternateBounds" />
          </mxGeometry>
        </mxCell>
        <mxCell id="7g--utZz4-_J3ylmZAS1-134" value="&lt;font style=&quot;font-size: 15px;&quot;&gt;cpf do funcionario&lt;/font&gt;" style="shape=partialRectangle;html=1;whiteSpace=wrap;connectable=1;strokeColor=inherit;overflow=hidden;fillColor=none;top=0;left=0;bottom=0;right=0;pointerEvents=1;fontSize=16;align=center;movable=1;resizable=1;rotatable=1;deletable=1;editable=1;locked=0;swimlaneLine=1;" vertex="1" parent="7g--utZz4-_J3ylmZAS1-131">
          <mxGeometry x="307" width="153" height="54" as="geometry">
            <mxRectangle width="153" height="54" as="alternateBounds" />
          </mxGeometry>
        </mxCell>
        <mxCell id="7g--utZz4-_J3ylmZAS1-135" value="" style="shape=tableRow;horizontal=0;startSize=0;swimlaneHead=0;swimlaneBody=0;strokeColor=inherit;top=0;left=0;bottom=0;right=0;collapsible=0;dropTarget=0;fillColor=none;points=[[0,0.5],[1,0.5]];portConstraint=eastwest;fontSize=16;movable=1;resizable=1;rotatable=1;deletable=1;editable=1;locked=0;connectable=1;swimlaneLine=1;" vertex="1" parent="7g--utZz4-_J3ylmZAS1-126">
          <mxGeometry y="118" width="459.9999999999999" height="63" as="geometry" />
        </mxCell>
        <mxCell id="7g--utZz4-_J3ylmZAS1-136" value="&lt;font style=&quot;font-size: 15px;&quot;&gt;nome&lt;/font&gt;" style="shape=partialRectangle;html=1;whiteSpace=wrap;connectable=1;strokeColor=inherit;overflow=hidden;fillColor=none;top=0;left=0;bottom=0;right=0;pointerEvents=1;fontSize=16;movable=1;resizable=1;rotatable=1;deletable=1;editable=1;locked=0;swimlaneLine=1;" vertex="1" parent="7g--utZz4-_J3ylmZAS1-135">
          <mxGeometry width="153" height="63" as="geometry">
            <mxRectangle width="153" height="63" as="alternateBounds" />
          </mxGeometry>
        </mxCell>
        <mxCell id="7g--utZz4-_J3ylmZAS1-137" value="&lt;font style=&quot;font-size: 15px;&quot;&gt;VARCHAR&lt;/font&gt;" style="shape=partialRectangle;html=1;whiteSpace=wrap;connectable=1;strokeColor=inherit;overflow=hidden;fillColor=none;top=0;left=0;bottom=0;right=0;pointerEvents=1;fontSize=16;movable=1;resizable=1;rotatable=1;deletable=1;editable=1;locked=0;swimlaneLine=1;" vertex="1" parent="7g--utZz4-_J3ylmZAS1-135">
          <mxGeometry x="153" width="154" height="63" as="geometry">
            <mxRectangle width="154" height="63" as="alternateBounds" />
          </mxGeometry>
        </mxCell>
        <mxCell id="7g--utZz4-_J3ylmZAS1-138" value="&lt;font style=&quot;font-size: 15px;&quot;&gt;nome do funcionario&lt;/font&gt;" style="shape=partialRectangle;html=1;whiteSpace=wrap;connectable=1;strokeColor=inherit;overflow=hidden;fillColor=none;top=0;left=0;bottom=0;right=0;pointerEvents=1;fontSize=16;align=center;movable=1;resizable=1;rotatable=1;deletable=1;editable=1;locked=0;swimlaneLine=1;" vertex="1" parent="7g--utZz4-_J3ylmZAS1-135">
          <mxGeometry x="307" width="153" height="63" as="geometry">
            <mxRectangle width="153" height="63" as="alternateBounds" />
          </mxGeometry>
        </mxCell>
        <mxCell id="7g--utZz4-_J3ylmZAS1-139" value="" style="shape=table;startSize=0;container=1;collapsible=0;childLayout=tableLayout;fontSize=16;movable=1;resizable=1;rotatable=1;deletable=1;editable=1;locked=0;connectable=1;swimlaneLine=1;" vertex="1" parent="7g--utZz4-_J3ylmZAS1-161">
          <mxGeometry y="181.23569794050348" width="459.9999999999999" height="197.7116704805492" as="geometry" />
        </mxCell>
        <mxCell id="7g--utZz4-_J3ylmZAS1-140" value="" style="shape=tableRow;horizontal=0;startSize=0;swimlaneHead=0;swimlaneBody=0;strokeColor=inherit;top=0;left=0;bottom=0;right=0;collapsible=0;dropTarget=0;fillColor=none;points=[[0,0.5],[1,0.5]];portConstraint=eastwest;fontSize=16;movable=1;resizable=1;rotatable=1;deletable=1;editable=1;locked=0;connectable=1;swimlaneLine=1;" vertex="1" parent="7g--utZz4-_J3ylmZAS1-139">
          <mxGeometry width="459.9999999999999" height="65" as="geometry" />
        </mxCell>
        <mxCell id="7g--utZz4-_J3ylmZAS1-141" value="&lt;font style=&quot;font-size: 15px;&quot;&gt;profis&lt;/font&gt;" style="shape=partialRectangle;html=1;whiteSpace=wrap;connectable=1;strokeColor=inherit;overflow=hidden;fillColor=none;top=0;left=0;bottom=0;right=0;pointerEvents=1;fontSize=16;movable=1;resizable=1;rotatable=1;deletable=1;editable=1;locked=0;swimlaneLine=1;" vertex="1" parent="7g--utZz4-_J3ylmZAS1-140">
          <mxGeometry width="153" height="65" as="geometry">
            <mxRectangle width="153" height="65" as="alternateBounds" />
          </mxGeometry>
        </mxCell>
        <mxCell id="7g--utZz4-_J3ylmZAS1-142" value="&lt;font style=&quot;font-size: 15px;&quot;&gt;VARCHAR&lt;/font&gt;" style="shape=partialRectangle;html=1;whiteSpace=wrap;connectable=1;strokeColor=inherit;overflow=hidden;fillColor=none;top=0;left=0;bottom=0;right=0;pointerEvents=1;fontSize=16;movable=1;resizable=1;rotatable=1;deletable=1;editable=1;locked=0;swimlaneLine=1;" vertex="1" parent="7g--utZz4-_J3ylmZAS1-140">
          <mxGeometry x="153" width="154" height="65" as="geometry">
            <mxRectangle width="154" height="65" as="alternateBounds" />
          </mxGeometry>
        </mxCell>
        <mxCell id="7g--utZz4-_J3ylmZAS1-143" value="&lt;font style=&quot;font-size: 15px;&quot;&gt;profissão do funcionário&lt;/font&gt;" style="shape=partialRectangle;html=1;whiteSpace=wrap;connectable=1;strokeColor=inherit;overflow=hidden;fillColor=none;top=0;left=0;bottom=0;right=0;pointerEvents=1;fontSize=16;align=center;movable=1;resizable=1;rotatable=1;deletable=1;editable=1;locked=0;swimlaneLine=1;" vertex="1" parent="7g--utZz4-_J3ylmZAS1-140">
          <mxGeometry x="307" width="153" height="65" as="geometry">
            <mxRectangle width="153" height="65" as="alternateBounds" />
          </mxGeometry>
        </mxCell>
        <mxCell id="7g--utZz4-_J3ylmZAS1-144" value="" style="shape=tableRow;horizontal=0;startSize=0;swimlaneHead=0;swimlaneBody=0;strokeColor=inherit;top=0;left=0;bottom=0;right=0;collapsible=0;dropTarget=0;fillColor=none;points=[[0,0.5],[1,0.5]];portConstraint=eastwest;fontSize=16;movable=1;resizable=1;rotatable=1;deletable=1;editable=1;locked=0;connectable=1;swimlaneLine=1;" vertex="1" parent="7g--utZz4-_J3ylmZAS1-139">
          <mxGeometry y="65" width="459.9999999999999" height="71" as="geometry" />
        </mxCell>
        <mxCell id="7g--utZz4-_J3ylmZAS1-145" value="&lt;font style=&quot;font-size: 15px;&quot;&gt;data&lt;/font&gt;" style="shape=partialRectangle;html=1;whiteSpace=wrap;connectable=1;strokeColor=inherit;overflow=hidden;fillColor=none;top=0;left=0;bottom=0;right=0;pointerEvents=1;fontSize=16;movable=1;resizable=1;rotatable=1;deletable=1;editable=1;locked=0;swimlaneLine=1;" vertex="1" parent="7g--utZz4-_J3ylmZAS1-144">
          <mxGeometry width="153" height="71" as="geometry">
            <mxRectangle width="153" height="71" as="alternateBounds" />
          </mxGeometry>
        </mxCell>
        <mxCell id="7g--utZz4-_J3ylmZAS1-146" value="&lt;font style=&quot;font-size: 15px;&quot;&gt;DATE/TIME&lt;/font&gt;" style="shape=partialRectangle;html=1;whiteSpace=wrap;connectable=1;strokeColor=inherit;overflow=hidden;fillColor=none;top=0;left=0;bottom=0;right=0;pointerEvents=1;fontSize=16;movable=1;resizable=1;rotatable=1;deletable=1;editable=1;locked=0;swimlaneLine=1;" vertex="1" parent="7g--utZz4-_J3ylmZAS1-144">
          <mxGeometry x="153" width="154" height="71" as="geometry">
            <mxRectangle width="154" height="71" as="alternateBounds" />
          </mxGeometry>
        </mxCell>
        <mxCell id="7g--utZz4-_J3ylmZAS1-147" value="&lt;font style=&quot;font-size: 15px;&quot;&gt;hora de entra ou saída&lt;/font&gt;" style="shape=partialRectangle;html=1;whiteSpace=wrap;connectable=1;strokeColor=inherit;overflow=hidden;fillColor=none;top=0;left=0;bottom=0;right=0;pointerEvents=1;fontSize=16;align=center;movable=1;resizable=1;rotatable=1;deletable=1;editable=1;locked=0;swimlaneLine=1;" vertex="1" parent="7g--utZz4-_J3ylmZAS1-144">
          <mxGeometry x="307" width="153" height="71" as="geometry">
            <mxRectangle width="153" height="71" as="alternateBounds" />
          </mxGeometry>
        </mxCell>
        <mxCell id="7g--utZz4-_J3ylmZAS1-148" value="" style="shape=tableRow;horizontal=0;startSize=0;swimlaneHead=0;swimlaneBody=0;strokeColor=inherit;top=0;left=0;bottom=0;right=0;collapsible=0;dropTarget=0;fillColor=none;points=[[0,0.5],[1,0.5]];portConstraint=eastwest;fontSize=16;movable=1;resizable=1;rotatable=1;deletable=1;editable=1;locked=0;connectable=1;swimlaneLine=1;" vertex="1" parent="7g--utZz4-_J3ylmZAS1-139">
          <mxGeometry y="136" width="459.9999999999999" height="62" as="geometry" />
        </mxCell>
        <mxCell id="7g--utZz4-_J3ylmZAS1-149" value="&lt;font style=&quot;font-size: 15px;&quot;&gt;status&lt;/font&gt;" style="shape=partialRectangle;html=1;whiteSpace=wrap;connectable=1;strokeColor=inherit;overflow=hidden;fillColor=none;top=0;left=0;bottom=0;right=0;pointerEvents=1;fontSize=16;movable=1;resizable=1;rotatable=1;deletable=1;editable=1;locked=0;swimlaneLine=1;" vertex="1" parent="7g--utZz4-_J3ylmZAS1-148">
          <mxGeometry width="153" height="62" as="geometry">
            <mxRectangle width="153" height="62" as="alternateBounds" />
          </mxGeometry>
        </mxCell>
        <mxCell id="7g--utZz4-_J3ylmZAS1-150" value="&lt;font style=&quot;font-size: 15px;&quot;&gt;VARCHAR&lt;/font&gt;" style="shape=partialRectangle;html=1;whiteSpace=wrap;connectable=1;strokeColor=inherit;overflow=hidden;fillColor=none;top=0;left=0;bottom=0;right=0;pointerEvents=1;fontSize=16;movable=1;resizable=1;rotatable=1;deletable=1;editable=1;locked=0;swimlaneLine=1;" vertex="1" parent="7g--utZz4-_J3ylmZAS1-148">
          <mxGeometry x="153" width="154" height="62" as="geometry">
            <mxRectangle width="154" height="62" as="alternateBounds" />
          </mxGeometry>
        </mxCell>
        <mxCell id="7g--utZz4-_J3ylmZAS1-151" value="&lt;font style=&quot;font-size: 15px;&quot;&gt;entrou ou saiu&lt;/font&gt;" style="shape=partialRectangle;html=1;whiteSpace=wrap;connectable=1;strokeColor=inherit;overflow=hidden;fillColor=none;top=0;left=0;bottom=0;right=0;pointerEvents=1;fontSize=16;movable=1;resizable=1;rotatable=1;deletable=1;editable=1;locked=0;swimlaneLine=1;" vertex="1" parent="7g--utZz4-_J3ylmZAS1-148">
          <mxGeometry x="307" width="153" height="62" as="geometry">
            <mxRectangle width="153" height="62" as="alternateBounds" />
          </mxGeometry>
        </mxCell>
        <mxCell id="7g--utZz4-_J3ylmZAS1-165" value="" style="group" vertex="1" connectable="0" parent="1">
          <mxGeometry x="80" y="170" width="360" height="510" as="geometry" />
        </mxCell>
        <mxCell id="7g--utZz4-_J3ylmZAS1-75" value="" style="group" vertex="1" connectable="0" parent="7g--utZz4-_J3ylmZAS1-165">
          <mxGeometry x="47.99999999999999" y="306" width="300" height="204.00000000000003" as="geometry" />
        </mxCell>
        <mxCell id="7g--utZz4-_J3ylmZAS1-60" value="" style="rounded=0;whiteSpace=wrap;html=1;" vertex="1" parent="7g--utZz4-_J3ylmZAS1-75">
          <mxGeometry width="288" height="204.00000000000003" as="geometry" />
        </mxCell>
        <mxCell id="7g--utZz4-_J3ylmZAS1-61" value="" style="rounded=0;whiteSpace=wrap;html=1;" vertex="1" parent="7g--utZz4-_J3ylmZAS1-75">
          <mxGeometry width="95.99999999999999" height="51.00000000000001" as="geometry" />
        </mxCell>
        <mxCell id="7g--utZz4-_J3ylmZAS1-62" value="" style="rounded=0;whiteSpace=wrap;html=1;" vertex="1" parent="7g--utZz4-_J3ylmZAS1-75">
          <mxGeometry x="95.99999999999999" width="95.99999999999999" height="51.00000000000001" as="geometry" />
        </mxCell>
        <mxCell id="7g--utZz4-_J3ylmZAS1-63" value="" style="rounded=0;whiteSpace=wrap;html=1;" vertex="1" parent="7g--utZz4-_J3ylmZAS1-75">
          <mxGeometry x="191.99999999999997" width="95.99999999999999" height="51.00000000000001" as="geometry" />
        </mxCell>
        <mxCell id="7g--utZz4-_J3ylmZAS1-65" value="" style="endArrow=none;html=1;rounded=0;" edge="1" parent="7g--utZz4-_J3ylmZAS1-75">
          <mxGeometry width="50" height="50" relative="1" as="geometry">
            <mxPoint x="95.99999999999999" y="204.00000000000003" as="sourcePoint" />
            <mxPoint x="95.99999999999999" y="51.00000000000001" as="targetPoint" />
          </mxGeometry>
        </mxCell>
        <mxCell id="7g--utZz4-_J3ylmZAS1-66" value="" style="endArrow=none;html=1;rounded=0;" edge="1" parent="7g--utZz4-_J3ylmZAS1-75">
          <mxGeometry width="50" height="50" relative="1" as="geometry">
            <mxPoint x="191.99999999999997" y="204.00000000000003" as="sourcePoint" />
            <mxPoint x="191.99999999999997" y="51.00000000000001" as="targetPoint" />
          </mxGeometry>
        </mxCell>
        <mxCell id="7g--utZz4-_J3ylmZAS1-67" value="" style="endArrow=none;html=1;rounded=0;" edge="1" parent="7g--utZz4-_J3ylmZAS1-75">
          <mxGeometry width="50" height="50" relative="1" as="geometry">
            <mxPoint x="288" y="204.00000000000003" as="sourcePoint" />
            <mxPoint x="287.54399999999987" y="51.00000000000001" as="targetPoint" />
          </mxGeometry>
        </mxCell>
        <mxCell id="7g--utZz4-_J3ylmZAS1-68" value="" style="endArrow=none;html=1;rounded=0;" edge="1" parent="7g--utZz4-_J3ylmZAS1-75">
          <mxGeometry width="50" height="50" relative="1" as="geometry">
            <mxPoint y="127.49999999999999" as="sourcePoint" />
            <mxPoint x="288" y="127.49999999999999" as="targetPoint" />
          </mxGeometry>
        </mxCell>
        <mxCell id="7g--utZz4-_J3ylmZAS1-69" value="" style="endArrow=none;html=1;rounded=0;entryX=0.75;entryY=1;entryDx=0;entryDy=0;" edge="1" parent="7g--utZz4-_J3ylmZAS1-75" target="7g--utZz4-_J3ylmZAS1-60">
          <mxGeometry width="50" height="50" relative="1" as="geometry">
            <mxPoint y="204.00000000000003" as="sourcePoint" />
            <mxPoint x="383.99999999999994" y="204.00000000000003" as="targetPoint" />
          </mxGeometry>
        </mxCell>
        <mxCell id="7g--utZz4-_J3ylmZAS1-70" value="&lt;font style=&quot;font-size: 15px;&quot;&gt;CPF&lt;/font&gt;" style="text;html=1;align=center;verticalAlign=middle;resizable=0;points=[];autosize=1;strokeColor=none;fillColor=none;fontSize=6;" vertex="1" parent="7g--utZz4-_J3ylmZAS1-75">
          <mxGeometry x="23" y="10.5" width="50" height="30" as="geometry" />
        </mxCell>
        <mxCell id="7g--utZz4-_J3ylmZAS1-71" value="&lt;font style=&quot;font-size: 15px;&quot;&gt;DATA&lt;/font&gt;" style="text;html=1;align=center;verticalAlign=middle;resizable=0;points=[];autosize=1;strokeColor=none;fillColor=none;fontSize=6;" vertex="1" parent="7g--utZz4-_J3ylmZAS1-75">
          <mxGeometry x="113.99999999999999" y="10.5" width="60" height="30" as="geometry" />
        </mxCell>
        <mxCell id="7g--utZz4-_J3ylmZAS1-72" value="STATUS" style="text;html=1;align=center;verticalAlign=middle;resizable=0;points=[];autosize=1;strokeColor=none;fillColor=none;fontSize=15;" vertex="1" parent="7g--utZz4-_J3ylmZAS1-75">
          <mxGeometry x="197" y="10.5" width="80" height="30" as="geometry" />
        </mxCell>
        <mxCell id="7g--utZz4-_J3ylmZAS1-92" value="&lt;font style=&quot;font-size: 12px;&quot;&gt;000.000.000-00&lt;/font&gt;" style="text;html=1;strokeColor=none;fillColor=none;align=center;verticalAlign=middle;whiteSpace=wrap;rounded=0;fontSize=6;" vertex="1" parent="7g--utZz4-_J3ylmZAS1-75">
          <mxGeometry y="51.00000000000001" width="95.99999999999999" height="76.5" as="geometry" />
        </mxCell>
        <mxCell id="7g--utZz4-_J3ylmZAS1-93" value="&lt;font style=&quot;font-size: 12px;&quot;&gt;24/08/23&amp;nbsp; 15:50&lt;/font&gt;" style="text;html=1;strokeColor=none;fillColor=none;align=center;verticalAlign=middle;whiteSpace=wrap;rounded=0;fontSize=6;" vertex="1" parent="7g--utZz4-_J3ylmZAS1-75">
          <mxGeometry x="95.99999999999999" y="51.00000000000001" width="95.99999999999999" height="76.5" as="geometry" />
        </mxCell>
        <mxCell id="7g--utZz4-_J3ylmZAS1-94" value="&lt;font style=&quot;font-size: 15px;&quot;&gt;entrou&lt;/font&gt;" style="text;html=1;strokeColor=none;fillColor=none;align=center;verticalAlign=middle;whiteSpace=wrap;rounded=0;fontSize=6;" vertex="1" parent="7g--utZz4-_J3ylmZAS1-75">
          <mxGeometry x="191.99999999999997" y="51.00000000000001" width="95.99999999999999" height="76.5" as="geometry" />
        </mxCell>
        <mxCell id="7g--utZz4-_J3ylmZAS1-76" value="" style="group" vertex="1" connectable="0" parent="7g--utZz4-_J3ylmZAS1-165">
          <mxGeometry x="47.99999999999999" width="312" height="204.00000000000003" as="geometry" />
        </mxCell>
        <mxCell id="7g--utZz4-_J3ylmZAS1-77" value="" style="rounded=0;whiteSpace=wrap;html=1;" vertex="1" parent="7g--utZz4-_J3ylmZAS1-76">
          <mxGeometry width="287.99999999999994" height="204.00000000000003" as="geometry" />
        </mxCell>
        <mxCell id="7g--utZz4-_J3ylmZAS1-78" value="" style="rounded=0;whiteSpace=wrap;html=1;" vertex="1" parent="7g--utZz4-_J3ylmZAS1-76">
          <mxGeometry width="95.99999999999997" height="51.00000000000001" as="geometry" />
        </mxCell>
        <mxCell id="7g--utZz4-_J3ylmZAS1-79" value="" style="rounded=0;whiteSpace=wrap;html=1;" vertex="1" parent="7g--utZz4-_J3ylmZAS1-76">
          <mxGeometry x="95.99999999999997" width="95.99999999999997" height="51.00000000000001" as="geometry" />
        </mxCell>
        <mxCell id="7g--utZz4-_J3ylmZAS1-80" value="" style="rounded=0;whiteSpace=wrap;html=1;" vertex="1" parent="7g--utZz4-_J3ylmZAS1-76">
          <mxGeometry x="191.99999999999994" width="95.99999999999997" height="51.00000000000001" as="geometry" />
        </mxCell>
        <mxCell id="7g--utZz4-_J3ylmZAS1-81" value="" style="endArrow=none;html=1;rounded=0;" edge="1" parent="7g--utZz4-_J3ylmZAS1-76">
          <mxGeometry width="50" height="50" relative="1" as="geometry">
            <mxPoint x="95.99999999999997" y="204.00000000000003" as="sourcePoint" />
            <mxPoint x="95.99999999999997" y="51.00000000000001" as="targetPoint" />
          </mxGeometry>
        </mxCell>
        <mxCell id="7g--utZz4-_J3ylmZAS1-82" value="" style="endArrow=none;html=1;rounded=0;" edge="1" parent="7g--utZz4-_J3ylmZAS1-76">
          <mxGeometry width="50" height="50" relative="1" as="geometry">
            <mxPoint x="191.99999999999994" y="204.00000000000003" as="sourcePoint" />
            <mxPoint x="191.99999999999994" y="51.00000000000001" as="targetPoint" />
          </mxGeometry>
        </mxCell>
        <mxCell id="7g--utZz4-_J3ylmZAS1-83" value="" style="endArrow=none;html=1;rounded=0;" edge="1" parent="7g--utZz4-_J3ylmZAS1-76">
          <mxGeometry width="50" height="50" relative="1" as="geometry">
            <mxPoint x="287.99999999999994" y="204.00000000000003" as="sourcePoint" />
            <mxPoint x="287.5439999999998" y="51.00000000000001" as="targetPoint" />
          </mxGeometry>
        </mxCell>
        <mxCell id="7g--utZz4-_J3ylmZAS1-84" value="" style="endArrow=none;html=1;rounded=0;" edge="1" parent="7g--utZz4-_J3ylmZAS1-76">
          <mxGeometry width="50" height="50" relative="1" as="geometry">
            <mxPoint y="127.49999999999999" as="sourcePoint" />
            <mxPoint x="287.99999999999994" y="127.49999999999999" as="targetPoint" />
          </mxGeometry>
        </mxCell>
        <mxCell id="7g--utZz4-_J3ylmZAS1-85" value="" style="endArrow=none;html=1;rounded=0;entryX=0.75;entryY=1;entryDx=0;entryDy=0;" edge="1" parent="7g--utZz4-_J3ylmZAS1-76" target="7g--utZz4-_J3ylmZAS1-77">
          <mxGeometry width="50" height="50" relative="1" as="geometry">
            <mxPoint y="204.00000000000003" as="sourcePoint" />
            <mxPoint x="383.9999999999999" y="204.00000000000003" as="targetPoint" />
          </mxGeometry>
        </mxCell>
        <mxCell id="7g--utZz4-_J3ylmZAS1-86" value="CPF" style="text;html=1;align=center;verticalAlign=middle;resizable=0;points=[];autosize=1;strokeColor=none;fillColor=none;fontSize=15;" vertex="1" parent="7g--utZz4-_J3ylmZAS1-76">
          <mxGeometry x="23" y="10.5" width="50" height="30" as="geometry" />
        </mxCell>
        <mxCell id="7g--utZz4-_J3ylmZAS1-87" value="NOME" style="text;html=1;align=center;verticalAlign=middle;resizable=0;points=[];autosize=1;strokeColor=none;fillColor=none;fontSize=13;" vertex="1" parent="7g--utZz4-_J3ylmZAS1-76">
          <mxGeometry x="113.99999999999997" y="10.5" width="60" height="30" as="geometry" />
        </mxCell>
        <mxCell id="7g--utZz4-_J3ylmZAS1-88" value="PROFISSÂO" style="text;html=1;align=center;verticalAlign=middle;resizable=0;points=[];autosize=1;strokeColor=none;fillColor=none;fontSize=11;" vertex="1" parent="7g--utZz4-_J3ylmZAS1-76">
          <mxGeometry x="194.99999999999997" y="10.5" width="90" height="30" as="geometry" />
        </mxCell>
        <mxCell id="7g--utZz4-_J3ylmZAS1-91" value="&lt;font style=&quot;font-size: 12px;&quot;&gt;000.000.000-00&lt;/font&gt;" style="text;html=1;strokeColor=none;fillColor=none;align=center;verticalAlign=middle;whiteSpace=wrap;rounded=0;fontSize=6;" vertex="1" parent="7g--utZz4-_J3ylmZAS1-76">
          <mxGeometry y="51.00000000000001" width="95.99999999999997" height="76.5" as="geometry" />
        </mxCell>
        <mxCell id="7g--utZz4-_J3ylmZAS1-95" value="&lt;font style=&quot;font-size: 13px;&quot;&gt;exemplo&lt;/font&gt;" style="text;html=1;strokeColor=none;fillColor=none;align=center;verticalAlign=middle;whiteSpace=wrap;rounded=0;fontSize=6;" vertex="1" parent="7g--utZz4-_J3ylmZAS1-76">
          <mxGeometry x="95.99999999999997" y="51.00000000000001" width="95.99999999999997" height="76.5" as="geometry" />
        </mxCell>
        <mxCell id="7g--utZz4-_J3ylmZAS1-97" value="&lt;font style=&quot;font-size: 14px;&quot;&gt;médico&lt;/font&gt;" style="text;html=1;strokeColor=none;fillColor=none;align=center;verticalAlign=middle;whiteSpace=wrap;rounded=0;fontSize=6;" vertex="1" parent="7g--utZz4-_J3ylmZAS1-76">
          <mxGeometry x="191.99999999999994" y="51.00000000000001" width="95.99999999999997" height="76.5" as="geometry" />
        </mxCell>
        <mxCell id="7g--utZz4-_J3ylmZAS1-158" style="edgeStyle=orthogonalEdgeStyle;rounded=0;orthogonalLoop=1;jettySize=auto;html=1;exitX=0.002;exitY=0.585;exitDx=0;exitDy=0;exitPerimeter=0;" edge="1" parent="7g--utZz4-_J3ylmZAS1-165" source="7g--utZz4-_J3ylmZAS1-78" target="7g--utZz4-_J3ylmZAS1-61">
          <mxGeometry relative="1" as="geometry">
            <mxPoint x="50" y="30" as="sourcePoint" />
            <Array as="points">
              <mxPoint y="30" />
              <mxPoint y="330" />
            </Array>
          </mxGeometry>
        </mxCell>
        <mxCell id="7g--utZz4-_J3ylmZAS1-160" value="&lt;font style=&quot;font-size: 20px;&quot;&gt;TABELA:&amp;nbsp; PONTO&lt;/font&gt;" style="text;html=1;strokeColor=none;fillColor=none;align=center;verticalAlign=middle;whiteSpace=wrap;rounded=0;fontSize=9;" vertex="1" parent="7g--utZz4-_J3ylmZAS1-165">
          <mxGeometry x="47.99999999999999" y="254.99999999999997" width="288" height="51.00000000000001" as="geometry" />
        </mxCell>
      </root>
    </mxGraphModel>
  </diagram>
</mxfile>
